<?xml version="1.0" encoding="UTF-8" standalone="no"?>
<svg width="17px" height="17px" viewBox="0 0 17 17" version="1.1" xmlns="http://www.w3.org/2000/svg" xmlns:xlink="http://www.w3.org/1999/xlink" xmlns:sketch="http://www.bohemiancoding.com/sketch/ns">
    <!-- Generator: Sketch 3.4.2 (15855) - http://www.bohemiancoding.com/sketch -->
    <title>search</title>
    <desc>Created with Sketch.</desc>
    <defs></defs>
    <g id="Landing" stroke="none" stroke-width="1" fill="none" fill-rule="evenodd" sketch:type="MSPage">
        <g id="agenda-archive" sketch:type="MSArtboardGroup" transform="translate(-1393.000000, -39.000000)" fill="#005C9C">
            <g id="Group" sketch:type="MSLayerGroup" transform="translate(0.000000, 17.000000)">
                <path d="M1403.625,22 C1400.10301,22 1397.25,24.8530093 1397.25,28.375 C1397.25,29.6342593 1397.60417,30.7951389 1398.2338,31.7789352 L1393.41319,36.5798611 C1392.86227,37.130787 1392.86227,38.0358796 1393.41319,38.5868056 C1393.68866,38.8622685 1394.04282,39 1394.41667,39 C1394.77083,39 1395.14468,38.8622685 1395.42014,38.5868056 L1400.22106,33.7662037 C1401.20486,34.3958333 1402.36574,34.75 1403.625,34.75 C1407.14699,34.75 1410,31.8969907 1410,28.375 C1410,24.8530093 1407.14699,22 1403.625,22 L1403.625,22 Z M1403.625,32.625 C1401.28356,32.625 1399.375,30.7164352 1399.375,28.375 C1399.375,26.0335648 1401.28356,24.125 1403.625,24.125 C1405.96644,24.125 1407.875,26.0335648 1407.875,28.375 C1407.875,30.7164352 1405.96644,32.625 1403.625,32.625 L1403.625,32.625 Z" id="search" sketch:type="MSShapeGroup" transform="translate(1401.500000, 30.500000) scale(-1, 1) translate(-1401.500000, -30.500000) "></path>
            </g>
        </g>
    </g>
</svg>